<svg id="LOGO" xmlns="http://www.w3.org/2000/svg" viewBox="0 0 637 136"><defs><style>.cls-1{fill:#1c75bc;}.cls-2{fill:#27aae1;}</style></defs><path class="cls-1" d="M112.32,87.28H58.49a3.66,3.66,0,0,1-3.18-1.84l-16.73-29A3.68,3.68,0,1,1,45,52.8L60.61,79.93H110.2l6.73-11.65A3.68,3.68,0,1,1,123.3,72l-7.79,13.48A3.68,3.68,0,0,1,112.32,87.28Z"/><path class="cls-1" d="M129.05,58.31a3.66,3.66,0,0,1-3.18-1.84L110.2,29.34H60.61L52.39,43.59A3.68,3.68,0,0,1,46,39.91l9.29-16.08A3.66,3.66,0,0,1,58.49,22h53.83a3.68,3.68,0,0,1,3.19,1.84l16.73,29a3.67,3.67,0,0,1-3.19,5.51Z"/><path class="cls-2" d="M103.83,72.58H67a3.66,3.66,0,0,1-3.18-1.84L55.56,56.47a3.7,3.7,0,0,1,0-3.67L63.8,38.53A3.66,3.66,0,0,1,67,36.69h4.89a3.68,3.68,0,0,1,0,7.36H69.1L63,54.63,69.1,65.22h32.61l6.11-10.59-6.11-10.58H89.09a3.68,3.68,0,0,1,0-7.36h14.74A3.68,3.68,0,0,1,107,38.53l8.23,14.27a3.65,3.65,0,0,1,0,3.67L107,70.74A3.68,3.68,0,0,1,103.83,72.58Z"/><path class="cls-2" d="M79.76,128.72a3.66,3.66,0,0,1-3.18-1.84L62.2,102H50a3.68,3.68,0,0,1-3.19-1.84L21.6,56.47a3.7,3.7,0,0,1,0-3.67L46.82,9.12A3.68,3.68,0,0,1,50,7.28H81.73a3.68,3.68,0,0,1,0,7.36H52.13L29,54.63l23.1,40H64.32a3.87,3.87,0,0,1,1.17.19,3.7,3.7,0,0,1,2,1.65L82.94,123.2a3.67,3.67,0,0,1-3.18,5.52Z"/><path class="cls-1" d="M92.38,117a3.69,3.69,0,0,1-3.19-1.83l-8.7-15.06a3.72,3.72,0,0,1,0-3.68,3.68,3.68,0,0,1,3.19-1.84h35l23.1-40-23.1-40H97.59a3.68,3.68,0,0,1,0-7.36h23.22A3.68,3.68,0,0,1,124,9.12L149.22,52.8a3.7,3.7,0,0,1,0,3.67L124,100.15a3.68,3.68,0,0,1-3.19,1.84H90.05l5.51,9.54a3.68,3.68,0,0,1-1.35,5A3.59,3.59,0,0,1,92.38,117Z"/><circle class="cls-2" cx="92.37" cy="113.37" r="5.96"/><path class="cls-1" d="M85.54,125a6,6,0,1,1-6-6A6,6,0,0,1,85.54,125Z"/><path class="cls-1" d="M87.69,11a6,6,0,1,1-6-6A6,6,0,0,1,87.69,11Z"/><path class="cls-2" d="M47.72,54.63a6,6,0,1,1-6-6A6,6,0,0,1,47.72,54.63Z"/><circle class="cls-2" cx="129.05" cy="54.63" r="5.96"/><path class="cls-1" d="M95,40.37a6,6,0,1,1-6-6A6,6,0,0,1,95,40.37Z"/><path class="cls-1" d="M166.88,41.16c0-4.5.85-7.57,2.54-9.23s4.93-2.48,9.75-2.48h36.46q7.22,0,9.75,2.48c1.69,1.66,2.53,4.73,2.53,9.23V67.27q0,6.8-2.53,9.26T215.63,79h-5.34l6.23,12.75H205.09L199.51,79H179.17q-7.23,0-9.75-2.46t-2.54-9.26Zm11.53,28.5h17l-4.59-10.73,8.34-3.38,6.7,14.11h10.6V38.3h-38Z"/><path class="cls-2" d="M248.26,79V29.45h9.32l23.35,30,22.82-29.95H313V79H302.3V48.38q0-.89.12-2.25c.08-.9.18-1.92.3-3-.62,1.28-1.17,2.33-1.64,3.16s-.89,1.51-1.26,2L281.21,73h-2.3L260.26,48.19a29.46,29.46,0,0,1-1.76-2.64,18.7,18.7,0,0,1-1.2-2.42c.1,1,.17,2,.21,2.81s.07,1.66.07,2.44V79Z"/><path class="cls-2" d="M323.91,79l28-49.54h11.11L391.45,79H378.52l-6-10.83h-31.4L335.39,79Zm22.17-19.78h21.7L357.1,39.05Z"/><path class="cls-2" d="M420.09,38.3V79H408.56V38.3H385.83V29.45h57.09V38.3Z"/><path class="cls-2" d="M453.19,79V29.45h42.37c3.94,0,6.79.75,8.56,2.27s2.64,4,2.64,7.33V50.68q0,5-2.64,7.31t-8.56,2.3h-6.47L512,79H495.42l-20-18.7H464.53V79Zm37.26-41H464.53V51.8h25.92c2,0,3.37-.29,4.1-.86a3.69,3.69,0,0,0,1.11-3.07v-6a3.63,3.63,0,0,0-1.11-3C493.82,38.31,492.45,38,490.45,38Z"/><path class="cls-2" d="M526.31,79V29.45h11.53V79Z"/><path class="cls-2" d="M551.77,79l23.48-25.45-23.9-24.09h15.28l15.84,16.82,15-16.82h13.26L589.17,52.22,615.89,79H600.23L582.1,59.77,565.36,79Z"/></svg>